<svg class="app_logo" width="55" height="55" viewBox="0 0 55 55" fill="none" xmlns="http://www.w3.org/2000/svg">
<path d="M0 6C0 2.68629 2.68629 0 6 0H49C52.3137 0 55 2.68629 55 6V49C55 52.3137 52.3137 55 49 55H6C2.68629 55 0 52.3137 0 49V6Z" fill="url(#paint0_linear_12_139)"/>
<path d="M15 14C15 12.3431 16.3431 11 18 11H37C38.6569 11 40 12.3431 40 14V37C40 38.6569 38.6569 40 37 40H18C16.3431 40 15 38.6569 15 37V14Z" fill="white"/>
<path d="M27.1653 42.735C27.5606 43.334 28.4394 43.334 28.8347 42.735L30.4409 40.3007C30.8796 39.6359 30.4027 38.75 29.6062 38.75H26.3938C25.5973 38.75 25.1204 39.6359 25.5591 40.3007L27.1653 42.735Z" fill="white"/>
<path d="M20.6569 25.5C20.6569 24.3667 20.8835 23.38 21.3369 22.54C21.7902 21.6867 22.4169 21.0267 23.2169 20.56C24.0302 20.0933 24.9569 19.86 25.9969 19.86C27.3435 19.86 28.4502 20.1867 29.3169 20.84C30.1969 21.4933 30.7769 22.4 31.0569 23.56H29.0969C28.9102 22.8933 28.5435 22.3667 27.9969 21.98C27.4635 21.5933 26.7969 21.4 25.9969 21.4C24.9569 21.4 24.1169 21.76 23.4769 22.48C22.8369 23.1867 22.5169 24.1933 22.5169 25.5C22.5169 26.82 22.8369 27.84 23.4769 28.56C24.1169 29.28 24.9569 29.64 25.9969 29.64C26.7969 29.64 27.4635 29.4533 27.9969 29.08C28.5302 28.7067 28.8969 28.1733 29.0969 27.48H31.0569C30.7635 28.6 30.1769 29.5 29.2969 30.18C28.4169 30.8467 27.3169 31.18 25.9969 31.18C24.9569 31.18 24.0302 30.9467 23.2169 30.48C22.4169 30.0133 21.7902 29.3533 21.3369 28.5C20.8835 27.6467 20.6569 26.6467 20.6569 25.5Z" fill="url(#paint1_linear_12_139)"/>
<path d="M34.0653 31.12C33.7186 31.12 33.4253 31 33.1853 30.76C32.9453 30.52 32.8253 30.2267 32.8253 29.88C32.8253 29.5333 32.9453 29.24 33.1853 29C33.4253 28.76 33.7186 28.64 34.0653 28.64C34.3986 28.64 34.6786 28.76 34.9053 29C35.1453 29.24 35.2653 29.5333 35.2653 29.88C35.2653 30.2267 35.1453 30.52 34.9053 30.76C34.6786 31 34.3986 31.12 34.0653 31.12ZM34.0653 22.56C33.7186 22.56 33.4253 22.44 33.1853 22.2C32.9453 21.96 32.8253 21.6667 32.8253 21.32C32.8253 20.9733 32.9453 20.68 33.1853 20.44C33.4253 20.2 33.7186 20.08 34.0653 20.08C34.3986 20.08 34.6786 20.2 34.9053 20.44C35.1453 20.68 35.2653 20.9733 35.2653 21.32C35.2653 21.6667 35.1453 21.96 34.9053 22.2C34.6786 22.44 34.3986 22.56 34.0653 22.56Z" fill="url(#paint2_linear_12_139)"/>
<defs>
<linearGradient id="paint0_linear_12_139" x1="27.5" y1="0" x2="27.5" y2="55" gradientUnits="userSpaceOnUse">
<stop stop-color="#277AE7"/>
<stop offset="1" stop-color="#27DBE7"/>
</linearGradient>
<linearGradient id="paint1_linear_12_139" x1="28" y1="5" x2="28" y2="43" gradientUnits="userSpaceOnUse">
<stop stop-color="#2799E7"/>
<stop offset="0.9999" stop-color="#27D3E7"/>
<stop offset="1" stop-color="#27BBE7"/>
</linearGradient>
<linearGradient id="paint2_linear_12_139" x1="28" y1="5" x2="28" y2="43" gradientUnits="userSpaceOnUse">
<stop stop-color="#2799E7"/>
<stop offset="0.9999" stop-color="#27D3E7"/>
<stop offset="1" stop-color="#27BBE7"/>
</linearGradient>
</defs>
</svg>
