<svg xmlns="http://www.w3.org/2000/svg" width="150" viewBox="0 0 183 144" fill="none">
  <path d="M3 140.865C8.1821 140.865 12.3085 139.432 17.1093 137.466C20.5737 136.048 24.1154 134.668 27.2688 132.662" stroke="white" stroke-width="6" stroke-linecap="round"/>
  <path d="M46.4104 121.04C47.4111 119.829 48.8436 119.056 50.1324 118.192C53.3872 116.007 56.345 113.447 59.2854 110.862C63.2367 107.387 66.7131 103.609 69.9956 99.5057" stroke="white" stroke-width="6" stroke-linecap="round"/>
  <path d="M79.2246 86.8586C79.2911 86.1933 79.7022 85.6163 79.9272 84.9976C80.7096 82.8461 81.0035 80.5245 81.5793 78.3132C82.8677 73.3659 82.9846 68.6695 82.9846 63.6152" stroke="white" stroke-width="6" stroke-linecap="round"/>
  <path d="M72.0465 43.7901C71.8482 44.1868 69.4737 42.8493 69.274 42.7646C66.7071 41.6756 64.2168 41.1797 61.4313 41.0746C58.6008 40.9677 56.517 43.319 54.2722 44.8155" stroke="white" stroke-width="6" stroke-linecap="round"/>
  <path d="M39.5742 57.4626C39.5742 58.4202 39.3022 59.1703 38.9666 60.0832C37.4563 64.1912 36.8792 67.604 36.8207 71.9897C36.7285 78.9095 35.4887 86.3573 37.8652 93.0113" stroke="white" stroke-width="6" stroke-linecap="round"/>
  <path d="M51.4302 106.115C51.9092 108.031 54.5118 109.247 56.0484 110.271C60.2817 113.094 65.5953 114.39 70.533 115.31C75.431 116.222 80.4762 115.939 85.4373 115.939" stroke="white" stroke-width="6" stroke-linecap="round"/>
  <path d="M103.952 106.493C107.724 105.807 110.975 100.42 113.063 97.7601C117.622 91.9521 120.346 85.4193 123.601 78.9092" stroke="white" stroke-width="6" stroke-linecap="round"/>
  <path d="M136.485 50.5L97.4849 53L180.485 3L148.485 89.5L136.485 50.5Z" stroke="white" stroke-width="5" stroke-linejoin="round"/>
</svg>