<svg width="42" height="42" viewBox="0 0 42 42" fill="white" xmlns="http://www.w3.org/2000/svg">
<path fill-rule="evenodd" clip-rule="evenodd" d="M9.36853 3.72916C10.6227 4.81184 10.7617 6.70624 9.67906 7.96042C7.38705 10.6155 6 14.0796 6 17.8801C6 26.2494 12.7345 33 21 33C29.2655 33 36 26.2494 36 17.8801C36 16.2232 37.3431 14.8801 39 14.8801C40.6569 14.8801 42 16.2232 42 17.8801C42 29.5255 32.6167 39 21 39C9.38326 39 0 29.5255 0 17.8801C0 12.5906 1.93746 7.74634 5.13727 4.03968C6.21995 2.7855 8.11435 2.64647 9.36853 3.72916Z"/>
</svg>