<svg width="3659" height="2694" viewBox="0 0 3659 2694" fill="none" xmlns="http://www.w3.org/2000/svg">
<g clip-path="url(#clip0_217_128)">
<rect width="3659" height="2694" fill="#090F18"/>
<g opacity="0.3">
<circle cx="2680.88" cy="1258.15" r="35.3133" transform="rotate(123.605 2680.88 1258.15)" fill="#277AE7"/>
<circle cx="2824.2" cy="779.749" r="39.4678" transform="rotate(123.605 2824.2 779.749)" fill="#277AE7"/>
<circle cx="2993.6" cy="400.982" r="20.7725" transform="rotate(123.605 2993.6 400.982)" fill="#277AE7"/>
<circle cx="2633.89" cy="266.702" r="24.927" transform="rotate(123.605 2633.89 266.702)" fill="#277AE7"/>
<circle cx="2404.98" cy="915.184" r="18.6953" transform="rotate(123.605 2404.98 915.184)" fill="#277AE7"/>
<ellipse cx="2292.42" cy="1084.94" rx="8.5" ry="9" transform="rotate(123.605 2292.42 1084.94)" fill="#277AE7"/>
<ellipse cx="2185.11" cy="1193.13" rx="11" ry="10.5" transform="rotate(123.605 2185.11 1193.13)" fill="#277AE7"/>
<circle cx="3042.19" cy="924.609" r="18.6953" transform="rotate(123.605 3042.19 924.609)" fill="#277AE7"/>
<circle cx="3335.77" cy="760.554" r="18.6953" transform="rotate(123.605 3335.77 760.554)" fill="#277AE7"/>
<circle cx="2996.83" cy="1413.23" r="18.6953" transform="rotate(123.605 2996.83 1413.23)" fill="#277AE7"/>
<circle cx="3176.24" cy="1188.28" r="18.6953" transform="rotate(123.605 3176.24 1188.28)" fill="#277AE7"/>
<circle cx="2593.93" cy="901.077" r="10.3863" transform="rotate(123.605 2593.93 901.077)" fill="#277AE7"/>
<circle cx="2547.54" cy="1473.82" r="10.3863" transform="rotate(123.605 2547.54 1473.82)" fill="#277AE7"/>
<circle cx="2775.78" cy="1535.7" r="10.3863" transform="rotate(123.605 2775.78 1535.7)" fill="#277AE7"/>
<ellipse cx="2290.33" cy="702.34" rx="10" ry="10.5" transform="rotate(123.605 2290.33 702.34)" fill="#277AE7"/>
<circle cx="2338.74" cy="1270" r="6" transform="rotate(123.605 2338.74 1270)" fill="#277AE7"/>
<line x1="2677.04" y1="1258.44" x2="2820.36" y2="780.042" stroke="#277AE7" stroke-width="2"/>
<line x1="2401.8" y1="914.813" x2="2821.01" y2="779.378" stroke="#277AE7" stroke-width="2"/>
<line x1="2402.94" y1="916.318" x2="2290.27" y2="1085.87" stroke="#277AE7" stroke-width="2"/>
<line x1="2672.6" y1="1251.3" x2="2401.32" y2="916.394" stroke="#277AE7" stroke-width="2"/>
<line x1="2334.98" y1="1270.18" x2="2593.69" y2="903.38" stroke="#277AE7" stroke-width="2"/>
<line x1="2335.33" y1="1271.64" x2="2184.26" y2="1191.21" stroke="#277AE7" stroke-width="2"/>
<line x1="2673.44" y1="1251.67" x2="2335.86" y2="1271.76" stroke="#277AE7" stroke-width="2"/>
<line x1="2674.25" y1="1251.17" x2="2545.52" y2="1474.89" stroke="#277AE7" stroke-width="2"/>
<line x1="2674.32" y1="1250.34" x2="2773.84" y2="1535.95" stroke="#277AE7" stroke-width="2"/>
<line x1="2994.51" y1="401.396" x2="2822.23" y2="780.743" stroke="#277AE7" stroke-width="2"/>
<line x1="3038.76" y1="926.022" x2="2820.77" y2="781.162" stroke="#277AE7" stroke-width="2"/>
<line x1="3038.82" y1="924.317" x2="3332.41" y2="760.261" stroke="#277AE7" stroke-width="2"/>
<line x1="3173.5" y1="1189.85" x2="2674.67" y2="1257.42" stroke="#277AE7" stroke-width="2"/>
<line x1="3174.14" y1="1189.48" x2="3001.62" y2="1404.06" stroke="#277AE7" stroke-width="2"/>
<line x1="3172.92" y1="1189.75" x2="2592.9" y2="899.091" stroke="#277AE7" stroke-width="2"/>
<line x1="3172.61" y1="1189.51" x2="2820.56" y2="780.982" stroke="#277AE7" stroke-width="2"/>
<line x1="2634.83" y1="266.36" x2="2822.26" y2="779.987" stroke="#277AE7" stroke-width="2"/>
<line x1="2634.89" y1="266.764" x2="2595.51" y2="904.018" stroke="#277AE7" stroke-width="2"/>
<line x1="2290.16" y1="700.623" x2="2821.47" y2="779.34" stroke="#277AE7" stroke-width="2"/>
<line x1="2290.16" y1="700.623" x2="2821.47" y2="779.34" stroke="#277AE7" stroke-width="2"/>
</g>
<g opacity="0.3">
<circle cx="1772.18" cy="1147.18" r="14.4781" transform="rotate(64.1234 1772.18 1147.18)" fill="#277AE7"/>
<circle cx="829.724" cy="745.684" r="39.4678" transform="rotate(64.1234 829.724 745.684)" fill="#277AE7"/>
<circle cx="589.451" cy="407.412" r="20.7725" transform="rotate(64.1234 589.451 407.412)" fill="#277AE7"/>
<circle cx="291.111" cy="649.095" r="24.927" transform="rotate(64.1234 291.111 649.095)" fill="#277AE7"/>
<circle cx="733.512" cy="1175.6" r="18.6953" transform="rotate(64.1234 733.512 1175.6)" fill="#277AE7"/>
<ellipse cx="822.592" cy="1358.78" rx="8.5" ry="9" transform="rotate(64.1234 822.592 1358.78)" fill="#277AE7"/>
<ellipse cx="861.297" cy="1506.16" rx="11" ry="10.5" transform="rotate(64.1234 861.297 1506.16)" fill="#277AE7"/>
<circle cx="1065.22" cy="631.454" r="18.6953" transform="rotate(64.1234 1065.22 631.454)" fill="#277AE7"/>
<circle cx="1072.97" cy="295.234" r="18.6953" transform="rotate(64.1234 1072.97 295.234)" fill="#277AE7"/>
<circle cx="1463.11" cy="918.664" r="18.6953" transform="rotate(64.1234 1463.11 918.664)" fill="#277AE7"/>
<circle cx="1360.43" cy="649.866" r="18.6953" transform="rotate(64.1234 1360.43 649.866)" fill="#277AE7"/>
<circle cx="817.31" cy="1005.67" r="10.3863" transform="rotate(64.1234 817.31 1005.67)" fill="#277AE7"/>
<circle cx="1287.15" cy="1336.48" r="10.3863" transform="rotate(64.1234 1287.15 1336.48)" fill="#277AE7"/>
<circle cx="1456.36" cy="1171.28" r="10.3863" transform="rotate(64.1234 1456.36 1171.28)" fill="#277AE7"/>
<ellipse cx="491.931" cy="1166.29" rx="10" ry="10.5" transform="rotate(64.1234 491.931 1166.29)" fill="#277AE7"/>
<circle cx="1005.54" cy="1412.86" r="6" transform="rotate(64.1234 1005.54 1412.86)" fill="#277AE7"/>
<line x1="1286.21" y1="1336.61" x2="827.974" y2="749.074" stroke="#277AE7" stroke-width="2"/>
<line x1="731.574" y1="1178.16" x2="827.786" y2="748.241" stroke="#277AE7" stroke-width="2"/>
<line x1="733.45" y1="1177.94" x2="822.295" y2="1361.1" stroke="#277AE7" stroke-width="2"/>
<line x1="1286.73" y1="1336.96" x2="732.276" y2="1179.34" stroke="#277AE7" stroke-width="2"/>
<line x1="1003.78" y1="1416.18" x2="819.174" y2="1007.04" stroke="#277AE7" stroke-width="2"/>
<line x1="1005.22" y1="1416.62" x2="859.212" y2="1505.91" stroke="#277AE7" stroke-width="2"/>
<line x1="1287.27" y1="1336.96" x2="1004.97" y2="1416.73" stroke="#277AE7" stroke-width="2"/>
<line x1="1772.09" y1="1145" x2="1456.09" y2="1172" stroke="#277AE7" stroke-width="2"/>
<line x1="1286.3" y1="1335.28" x2="1455.3" y2="1170.28" stroke="#277AE7" stroke-width="2"/>
<line x1="590.27" y1="406.838" x2="829.581" y2="747.885" stroke="#277AE7" stroke-width="2"/>
<line x1="1064.69" y1="635.129" x2="829.198" y2="749.359" stroke="#277AE7" stroke-width="2"/>
<line x1="1063.25" y1="634.206" x2="1071.01" y2="297.986" stroke="#277AE7" stroke-width="2"/>
<line x1="1360.46" y1="652.747" x2="1287.99" y2="1336.11" stroke="#277AE7" stroke-width="2"/>
<line x1="1360.4" y1="652.288" x2="1457.64" y2="909.872" stroke="#277AE7" stroke-width="2"/>
<line x1="1360.01" y1="653.482" x2="815.077" y2="1005.54" stroke="#277AE7" stroke-width="2"/>
<line x1="1359.64" y1="653.626" x2="828.94" y2="749.443" stroke="#277AE7" stroke-width="2"/>
<line x1="291.293" y1="648.112" x2="828.944" y2="747.476" stroke="#277AE7" stroke-width="2"/>
<line x1="291.672" y1="648.266" x2="820.646" y2="1005.8" stroke="#277AE7" stroke-width="2"/>
<line x1="490.368" y1="1165.56" x2="827.984" y2="747.831" stroke="#277AE7" stroke-width="2"/>
<line x1="490.368" y1="1165.56" x2="827.984" y2="747.831" stroke="#277AE7" stroke-width="2"/>
</g>
<g opacity="0.3">
<circle cx="2493.99" cy="1646.59" r="14.4781" transform="rotate(26.1935 2493.99 1646.59)" fill="#277AE7"/>
<circle cx="1503.81" cy="1909.23" r="39.4678" transform="rotate(26.1935 1503.81 1909.23)" fill="#277AE7"/>
<circle cx="1106.36" cy="1790.11" r="20.7725" transform="rotate(26.1935 1106.36 1790.11)" fill="#277AE7"/>
<circle cx="1019.6" cy="2164.13" r="24.927" transform="rotate(26.1935 1019.6 2164.13)" fill="#277AE7"/>
<circle cx="1692.19" cy="2307.48" r="18.6953" transform="rotate(26.1935 1692.19 2307.48)" fill="#277AE7"/>
<ellipse cx="1875.05" cy="2397.2" rx="8.5" ry="9" transform="rotate(26.1935 1875.05 2397.2)" fill="#277AE7"/>
<ellipse cx="1996.18" cy="2489.66" rx="11" ry="10.5" transform="rotate(26.1935 1996.18 2489.66)" fill="#277AE7"/>
<circle cx="1619.34" cy="1674.38" r="18.6953" transform="rotate(26.1935 1619.34 1674.38)" fill="#277AE7"/>
<circle cx="1418.78" cy="1404.41" r="18.6953" transform="rotate(26.1935 1418.78 1404.41)" fill="#277AE7"/>
<circle cx="2109.73" cy="1656.33" r="18.6953" transform="rotate(26.1935 2109.73 1656.33)" fill="#277AE7"/>
<circle cx="1863.51" cy="1507.43" r="18.6953" transform="rotate(26.1935 1863.51 1507.43)" fill="#277AE7"/>
<circle cx="1653.83" cy="2121.93" r="10.3863" transform="rotate(26.1935 1653.83 2121.93)" fill="#277AE7"/>
<circle cx="2227.77" cy="2094.05" r="10.3863" transform="rotate(26.1935 2227.77 2094.05)" fill="#277AE7"/>
<circle cx="2259.69" cy="1859.74" r="10.3863" transform="rotate(26.1935 2259.69 1859.74)" fill="#277AE7"/>
<ellipse cx="1495.91" cy="2448.63" rx="10" ry="10.5" transform="rotate(26.1935 1495.91 2448.63)" fill="#277AE7"/>
<circle cx="2052.59" cy="2327.4" r="6" transform="rotate(26.1935 2052.59 2327.4)" fill="#277AE7"/>
<line x1="2227.11" y1="2094.74" x2="1504.51" y2="1912.98" stroke="#277AE7" stroke-width="2"/>
<line x1="1692.23" y1="2310.69" x2="1503.85" y2="1912.44" stroke="#277AE7" stroke-width="2"/>
<line x1="1693.58" y1="2309.36" x2="1876.24" y2="2399.22" stroke="#277AE7" stroke-width="2"/>
<line x1="2227.73" y1="2094.69" x2="1693.51" y2="2311.19" stroke="#277AE7" stroke-width="2"/>
<line x1="2053.25" y1="2331.1" x2="1656.14" y2="2121.86" stroke="#277AE7" stroke-width="2"/>
<line x1="2054.65" y1="2330.57" x2="1994.38" y2="2490.75" stroke="#277AE7" stroke-width="2"/>
<line x1="2228.16" y1="2094.36" x2="2054.52" y2="2330.81" stroke="#277AE7" stroke-width="2"/>
<line x1="2492.57" y1="1644.93" x2="2259.91" y2="1860.47" stroke="#277AE7" stroke-width="2"/>
<line x1="2226.37" y1="2093.63" x2="2258.24" y2="1859.6" stroke="#277AE7" stroke-width="2"/>
<line x1="1106.65" y1="1789.15" x2="1505.05" y2="1911.06" stroke="#277AE7" stroke-width="2"/>
<line x1="1621.18" y1="1677.6" x2="1505.65" y2="1912.45" stroke="#277AE7" stroke-width="2"/>
<line x1="1619.48" y1="1677.75" x2="1418.93" y2="1407.79" stroke="#277AE7" stroke-width="2"/>
<line x1="1865.31" y1="1509.68" x2="2228.21" y2="2093.24" stroke="#277AE7" stroke-width="2"/>
<line x1="1864.98" y1="1509.36" x2="2100.02" y2="1652.76" stroke="#277AE7" stroke-width="2"/>
<line x1="1865.4" y1="1510.54" x2="1651.99" y2="2123.2" stroke="#277AE7" stroke-width="2"/>
<line x1="1865.2" y1="1510.88" x2="1505.5" y2="1912.68" stroke="#277AE7" stroke-width="2"/>
<line x1="1019.14" y1="2163.24" x2="1504.3" y2="1911.12" stroke="#277AE7" stroke-width="2"/>
<line x1="1019.53" y1="2163.13" x2="1656.54" y2="2119.98" stroke="#277AE7" stroke-width="2"/>
<line x1="1494.23" y1="2449.01" x2="1503.76" y2="1911.99" stroke="#277AE7" stroke-width="2"/>
<line x1="1494.23" y1="2449.01" x2="1503.76" y2="1911.99" stroke="#277AE7" stroke-width="2"/>
</g>
</g>
<defs>
<clipPath id="clip0_217_128">
<rect width="3659" height="2694" fill="white"/>
</clipPath>
</defs>
</svg>
